<svg xmlns="http://www.w3.org/2000/svg" viewBox="0 0 190.62 70.28"><path d="M.47 19.17L17.26 7.02a1.13 1.13 0 0 1 1.79.84l1.33 34.32 17.28-29.63a1.34 1.34 0 0 1 2.26-.17l7.82 12.53L66.86 1.85A1.34 1.34 0 0 1 69 3.24L52.46 54.9a2.32 2.32 0 0 1-4.26.35L38 35.34a1.13 1.13 0 0 0-1.85-.24L18 55.3a4.94 4.94 0 0 1-8.42-1.93L0 20.4a1.13 1.13 0 0 1 .47-1.23zm66.16 30.42L78 6.5a4 4 0 0 1 5.68-2.55l14.7 8.07 10.32-9a2.74 2.74 0 0 1 4.86 1.2l10.32 57a1.34 1.34 0 0 1-2.57.72l-16-42-7 4-12.21-5.26-5.67 50.41a1.34 1.34 0 0 1-2.31.76l-8.75-9.37a11.6 11.6 0 0 1-2.74-10.89zm61.99 16.51l.21-51.56a3.21 3.21 0 0 1 4.82-2.76l27.46 16-5.9-23.34a1.34 1.34 0 0 1 1-1.64L169.86.15a1.34 1.34 0 0 1 1.59 1.19l4.32 46.06a2.9 2.9 0 0 1-4.58 2.62l-29.72-21.51 1 29.32a1.34 1.34 0 0 1-.54 1.12l-11.16 8.23a1.34 1.34 0 0 1-2.15-1.08z" fill="#181818"/><path d="M188.63 3.81a4.21 4.21 0 0 1-.17 1.69 4.06 4.06 0 0 1-.78 1.41 4.5 4.5 0 0 1-1.26 1 4.07 4.07 0 0 1-1.58.49 4 4 0 0 1-1.67-.17 4.54 4.54 0 0 1-1.41-.75 4 4 0 0 1-1-1.24 4.33 4.33 0 0 1-.32-3.31 4 4 0 0 1 .78-1.41 4.55 4.55 0 0 1 1.24-1 4 4 0 0 1 1.6-.49 4.07 4.07 0 0 1 1.64.17 4.47 4.47 0 0 1 1.43.75 4 4 0 0 1 1 1.24 4.16 4.16 0 0 1 .5 1.62zm-7 15.57a4.21 4.21 0 0 1 .17-1.69 4 4 0 0 1 .78-1.41 4.54 4.54 0 0 1 1.24-1 4 4 0 0 1 1.6-.49 4.07 4.07 0 0 1 1.64.17 4.5 4.5 0 0 1 1.43.75 4 4 0 0 1 1 1.24 4.2 4.2 0 0 1 .49 1.62l.52 5.39a3.9 3.9 0 0 1-.85 2.94 3.79 3.79 0 0 1-2.7 1.42l-2.83.28-.34-3.45 2.12-.21q1.19-.12 1.06-1.44l-.05-.53a2.13 2.13 0 0 1-.74.21 4 4 0 0 1-1.67-.17 4.56 4.56 0 0 1-1.41-.75 4 4 0 0 1-1-1.24 4.16 4.16 0 0 1-.41-1.64z" fill="#211e26"/></svg>